# xmcd CD database file
#
# Track frame offsets:
#	150
#	7237
#	26786
#	38923
#	54201
#	74175
#	84070
#	94266
#	119927
#	135142
#	163288
#	174308
#	189181
#	200066
#	210738
#
# Disc length: 3247 seconds
#
# Revision: 0
# Processed by: cddbd v1.5.2PL0 Copyright (c) Steve Scherf et al.
# Submitted via: Feurio! 1.68 - http://www.feurio.com
#
DISCID=d60cad0f
DTITLE=Green on Red - Onkel Poe Hamburg 11-04-1985
DYEAR=1900
DGENRE=Country-Rock
TTITLE0=??? - Loves To Play The Fool
TTITLE1=??? - Keep On Moving
TTITLE2=??? - Easy Way Out
TTITLE3=??? - Sixteen Ways
TTITLE4=??? - Down To The Bone
TTITLE5=??? - Gravity Talks
TTITLE6=??? - 5 Easy Pieces
TTITLE7=??? - Sea Of Cortez
TTITLE8=??? - Funny How Time Slips Away
TTITLE9=??? - Brave Generation
TTITLE10=??? - Can't Drive Texas
TTITLE11=??? - Cheap Wine
TTITLE12=??? - We Shall Overcome
TTITLE13=??? - Hair Of The Dog
TTITLE14=??? - Snake Bit
EXTD=Green On Red 04/11/85\r\nOnkel Poe, Hamburg, Germany\r\n
EXTT0=
EXTT1=
EXTT2=
EXTT3=
EXTT4=
EXTT5=
EXTT6=
EXTT7=
EXTT8=
EXTT9=
EXTT10=
EXTT11=
EXTT12=
EXTT13=
EXTT14=
PLAYORDER=
